<?xml version="1.0" standalone="no"?>
<!DOCTYPE svg PUBLIC "-//W3C//DTD SVG 20010904//EN"
 "http://www.w3.org/TR/2001/REC-SVG-20010904/DTD/svg10.dtd">
<svg version="1.0" xmlns="http://www.w3.org/2000/svg"
 width="1280.000000pt" height="926.000000pt" viewBox="0 0 1280.000000 926.000000"
 preserveAspectRatio="xMidYMid meet">
<metadata>
Created by potrace 1.15, written by Peter Selinger 2001-2017
</metadata>
<g transform="translate(0.000000,926.000000) scale(0.100000,-0.100000)"
fill="#000000" stroke="none">
<path d="M6405 9242 c-75 -36 -104 -90 -81 -147 31 -74 125 -105 266 -87 47 5
113 20 148 32 62 22 65 22 110 4 27 -10 68 -39 98 -69 67 -67 97 -141 97 -247
1 -66 -4 -85 -31 -141 -34 -68 -99 -137 -130 -137 -29 0 -58 27 -121 108 -32
42 -69 87 -82 99 -32 29 -91 53 -131 53 -18 0 -62 9 -97 20 -73 23 -157 28
-174 11 -9 -9 -7 -21 9 -49 12 -20 24 -50 28 -66 19 -78 69 -109 251 -157 131
-34 160 -46 190 -79 24 -27 14 -46 -41 -78 -82 -47 -170 -66 -304 -67 -104 0
-138 4 -200 24 -103 32 -114 39 -264 155 -139 109 -246 183 -336 233 -73 40
-204 89 -260 97 -153 23 -210 47 -388 169 -155 107 -234 150 -265 145 -38 -5
-24 -22 54 -63 103 -56 139 -83 139 -106 0 -28 100 -102 210 -155 342 -166
358 -176 445 -281 67 -81 122 -188 204 -394 76 -190 134 -283 237 -375 87 -78
108 -112 100 -160 -18 -95 -196 -223 -375 -269 -92 -23 -254 -21 -356 5 -208
53 -366 184 -399 332 l-6 27 37 -16 c127 -54 295 -75 385 -49 100 29 149 91
163 206 33 272 -255 611 -710 836 -331 164 -648 161 -839 -7 -51 -45 -88 -102
-117 -181 -24 -66 -24 -79 0 -127 41 -79 142 -137 196 -113 14 6 33 25 43 42
19 30 19 30 -15 96 -27 55 -33 78 -33 131 0 143 76 193 264 173 148 -15 230
-60 277 -153 52 -101 32 -197 -65 -307 -197 -223 -217 -403 -63 -552 64 -61
90 -75 153 -83 43 -6 199 18 254 39 11 4 23 -10 42 -53 99 -211 465 -357 749
-297 145 31 308 118 404 215 27 28 53 51 57 51 19 0 51 -89 56 -156 11 -172
-114 -449 -232 -511 -84 -44 -237 -63 -346 -43 -95 18 -190 24 -190 13 0 -15
30 -38 85 -66 96 -48 147 -57 314 -57 235 0 340 30 426 120 56 58 115 88 115
58 0 -7 -37 -88 -81 -181 -80 -163 -82 -168 -70 -206 18 -61 73 -106 218 -176
73 -36 139 -65 148 -65 26 0 85 -61 126 -131 50 -83 84 -119 115 -119 l24 0 0
138 c0 174 20 258 81 346 47 69 58 116 36 167 -24 59 -69 100 -211 198 -134
92 -159 120 -120 135 9 4 78 6 153 6 l136 -1 133 55 c193 79 332 172 332 221
0 26 -17 25 -98 -5 -249 -91 -552 -96 -759 -14 -136 54 -234 132 -303 241 -55
86 -41 90 95 30 252 -112 562 -123 880 -31 102 29 273 107 340 155 61 44 71
33 77 -79 6 -97 25 -153 60 -176 42 -28 148 -49 208 -42 133 16 269 124 308
246 7 19 23 128 37 242 36 298 55 381 120 523 52 115 113 151 240 143 56 -4
84 -11 120 -32 79 -47 107 -120 65 -173 -33 -42 -25 -85 21 -108 86 -45 159
17 159 133 0 133 -158 251 -434 324 -151 40 -380 26 -566 -34 -292 -95 -560
-319 -661 -555 -26 -62 -35 -158 -19 -208 19 -57 77 -115 148 -147 35 -16 62
-35 62 -43 0 -22 -61 -49 -212 -94 -267 -80 -409 -99 -596 -81 -176 18 -407
94 -433 143 -7 11 -10 73 -8 151 7 272 4 317 -21 374 -26 59 -20 72 31 72 37
0 59 -21 137 -130 63 -89 72 -96 147 -135 102 -51 113 -59 256 -175 65 -53
137 -107 160 -119 l42 -24 -6 24 c-3 13 -9 65 -12 114 -19 254 -76 370 -210
431 -116 53 -95 102 67 164 90 35 154 65 178 85 8 6 56 22 105 34 227 58 367
167 395 309 7 32 20 75 29 97 23 49 94 130 161 181 48 37 50 39 28 46 -41 11
-141 8 -213 -7 -95 -20 -170 -59 -231 -119 -47 -48 -53 -61 -103 -206 -49
-147 -90 -230 -111 -230 -13 0 -13 1 6 74 23 86 22 218 -2 287 -37 105 -257
287 -423 350 -81 30 -185 35 -236 11z m145 -122 c0 -5 -11 -10 -24 -10 -14 0
-28 5 -31 10 -4 6 7 10 24 10 17 0 31 -4 31 -10z m884 -185 c-4 -8 -11 -15
-16 -15 -6 0 -5 6 2 15 7 8 14 15 16 15 2 0 1 -7 -2 -15z m-72 -88 c-6 -7 -27
-50 -46 -97 -33 -78 -77 -140 -100 -140 -5 0 0 10 12 23 11 12 37 57 56 99 41
90 64 128 78 128 7 0 7 -5 0 -13z m-1945 -168 c199 -71 335 -159 562 -368 96
-88 108 -103 147 -186 49 -105 64 -162 64 -241 0 -76 -17 -127 -56 -172 l-32
-37 -47 24 c-95 50 -178 184 -275 446 -92 249 -134 313 -276 423 -122 93 -139
106 -165 124 -34 24 -22 22 78 -13z m1053 -35 c0 -2 -9 -4 -21 -4 -11 0 -18 4
-14 10 5 8 35 3 35 -6z m100 -16 c10 -6 6 -7 -15 -3 -16 4 -34 11 -40 17 -12
12 31 1 55 -14z m8 -34 c21 -14 30 -34 15 -34 -5 0 -28 14 -53 31 -41 29 -42
31 -15 25 17 -4 40 -14 53 -22z m72 6 c13 -9 13 -10 0 -10 -8 0 -22 5 -30 10
-13 9 -13 10 0 10 8 0 22 -5 30 -10z m1577 -96 c-3 -3 -12 -4 -19 -1 -8 3 -5
6 6 6 11 1 17 -2 13 -5z m78 -24 c3 -5 -15 -15 -40 -21 -25 -6 -48 -15 -51
-20 -3 -5 -13 -9 -22 -9 -13 0 -12 5 8 21 45 36 92 49 105 29z m-195 -80 c0
-16 -9 -52 -20 -80 -11 -28 -20 -59 -20 -69 0 -10 -12 -24 -26 -32 -15 -7 -53
-42 -85 -77 -58 -64 -86 -119 -75 -148 6 -17 7 -17 114 1 67 12 49 -9 -30 -34
-127 -41 -208 -92 -208 -133 0 -35 -92 -118 -131 -118 -6 0 0 15 15 34 14 19
26 41 26 49 0 9 -18 50 -41 92 -22 42 -38 79 -36 82 3 2 22 -21 43 -52 38 -58
71 -82 97 -72 8 3 31 39 50 79 20 40 86 145 147 232 60 88 123 185 138 217 30
65 42 73 42 29z m-3335 -32 c25 -52 33 -104 16 -94 -5 3 -12 22 -15 41 -4 20
-16 51 -27 70 -13 21 -16 35 -10 35 7 0 23 -24 36 -52z m3525 3 c0 -5 -7 -14
-15 -21 -12 -10 -15 -10 -15 2 0 8 3 18 7 21 9 10 23 9 23 -2z m-3286 -63 c29
-41 -7 -51 -63 -17 -27 16 -31 23 -20 30 26 16 67 10 83 -13z m2797 -60 c28
-54 50 -118 41 -118 -17 0 -82 128 -82 162 0 18 21 -4 41 -44z m-2916 -53
c-31 -39 -60 -52 -80 -35 -24 20 -18 38 10 32 15 -2 38 4 57 17 43 27 43 27
13 -14z m1616 -41 c74 -39 171 -122 241 -207 l43 -52 -50 43 c-168 144 -230
194 -263 212 -56 29 -70 40 -53 40 7 0 44 -16 82 -36z m-1781 4 c0 -6 -7 -7
-16 -4 -9 3 -20 6 -25 6 -6 0 -8 4 -5 9 8 12 46 2 46 -11z m79 -115 c0 -34 -1
-36 -11 -16 -6 12 -8 29 -5 37 11 27 17 18 16 -21z m351 33 c0 -9 -81 -55
-114 -64 -50 -14 -128 -65 -166 -109 -25 -28 -30 -42 -28 -71 2 -31 9 -40 38
-54 19 -10 49 -20 65 -24 l30 -7 -30 -13 c-35 -16 -144 -18 -165 -4 -13 9 -11
14 14 34 21 18 26 29 21 45 -9 31 -61 66 -129 89 l-60 20 74 0 c63 -1 76 2 91
20 14 18 18 19 23 7 8 -21 36 -19 61 5 11 10 74 44 140 74 115 53 135 61 135
52z m120 -256 c-36 -30 -130 -65 -152 -57 -14 5 148 86 172 86 9 0 0 -12 -20
-29z m1570 10 c0 -5 -2 -10 -4 -10 -3 0 -8 5 -11 10 -3 6 -1 10 4 10 6 0 11
-4 11 -10z m-1783 -76 c-3 -3 -12 -4 -19 -1 -8 3 -5 6 6 6 11 1 17 -2 13 -5z
m-407 -54 c0 -5 -4 -10 -10 -10 -5 0 -10 5 -10 10 0 6 5 10 10 10 6 0 10 -4
10 -10z m3099 -35 c16 -8 64 -20 107 -28 l79 -13 -56 -8 c-47 -6 -66 -3 -114
16 -32 13 -60 29 -63 36 -5 16 13 15 47 -3z m-1366 -529 c88 -51 153 -61 395
-60 222 0 253 -6 131 -25 -90 -15 -173 -14 -317 5 -138 18 -195 14 -185 -14
19 -54 132 -279 185 -368 44 -74 72 -110 97 -125 46 -28 25 -37 -33 -15 -69
27 -113 77 -107 124 4 24 -37 -10 -85 -70 -25 -32 -47 -58 -50 -58 -2 0 14 34
36 76 47 89 52 142 19 230 -28 74 -87 172 -111 185 -17 9 -26 4 -60 -32 -32
-33 -39 -37 -33 -19 4 13 16 37 26 54 21 34 25 110 9 166 l-10 35 26 -33 c14
-17 44 -43 67 -56z m717 -36 c-20 -13 -43 -13 -35 0 3 6 16 10 28 10 18 0 19
-2 7 -10z m-880 -205 c-13 -14 -28 -25 -34 -25 -5 0 3 13 19 30 16 16 31 28
33 25 3 -3 -5 -16 -18 -30z m-190 -125 c0 -5 -7 -10 -16 -10 -8 0 -12 5 -9 10
3 6 10 10 16 10 5 0 9 -4 9 -10z m620 -280 c0 -11 -4 -20 -10 -20 -5 0 -10 9
-10 20 0 11 5 20 10 20 6 0 10 -9 10 -20z m20 -40 c8 -5 11 -10 5 -10 -5 0
-17 5 -25 10 -8 5 -10 10 -5 10 6 0 17 -5 25 -10z m9 -56 c-14 -18 -24 -11
-15 11 3 9 11 13 16 10 8 -5 7 -11 -1 -21z"/>
<path d="M17 8303 c-17 -16 -3 -61 37 -122 80 -121 81 -125 62 -238 -20 -120
-21 -223 -2 -266 20 -49 68 -84 133 -98 176 -37 352 -79 377 -89 50 -19 15
-32 -108 -40 -104 -7 -123 -12 -193 -46 -64 -30 -95 -55 -172 -132 -100 -102
-136 -162 -147 -245 -18 -128 34 -127 102 3 65 121 199 215 326 226 46 4 96
-1 188 -20 235 -48 386 -112 481 -205 33 -31 59 -63 59 -70 0 -7 -4 -9 -10 -6
-16 10 -231 -14 -316 -35 -43 -11 -117 -39 -164 -62 -223 -109 -337 -344 -271
-557 18 -58 79 -155 104 -164 7 -2 -3 -13 -21 -23 -141 -80 -202 -139 -202
-198 0 -41 25 -120 51 -162 72 -117 295 -204 523 -204 218 0 363 -67 422 -195
39 -83 30 -126 -46 -228 -69 -92 -128 -117 -224 -97 -73 15 -166 76 -218 145
-46 59 -86 79 -140 68 -82 -16 -77 -151 8 -221 72 -60 262 -99 390 -81 230 32
386 165 456 389 21 68 23 92 22 265 -1 161 -4 202 -22 269 -70 257 -211 445
-405 541 -169 84 -283 72 -386 -41 -47 -51 -101 -160 -101 -204 0 -10 -4 -21
-9 -24 -15 -10 -100 85 -128 143 -24 49 -27 68 -28 151 0 90 2 99 38 173 71
144 189 235 376 286 171 47 308 37 373 -28 20 -21 40 -51 43 -67 37 -166 86
-247 275 -454 150 -163 209 -240 250 -320 59 -118 63 -174 34 -414 -14 -118
-15 -154 -5 -202 6 -32 18 -62 25 -66 27 -15 39 -76 32 -158 -8 -87 1 -103 35
-69 23 23 23 31 3 326 -8 105 4 168 42 226 91 139 101 299 38 640 l-25 139 20
68 c45 147 182 272 348 315 74 19 78 19 103 -7 29 -31 26 -53 -25 -177 -26
-63 -45 -126 -45 -147 0 -41 32 -96 65 -114 11 -6 26 -24 34 -41 32 -72 85
-55 132 44 16 34 29 67 29 73 0 5 11 25 25 44 37 50 32 84 -31 208 -47 92 -54
113 -45 130 15 28 82 37 174 24 218 -33 416 -196 419 -346 1 -68 -8 -82 -68
-107 -72 -29 -166 -98 -198 -146 -75 -110 22 -224 165 -194 70 15 116 52 145
116 33 72 40 161 20 255 -9 41 -16 86 -16 100 0 43 -48 129 -98 178 -64 61
-140 106 -271 160 l-106 43 70 -5 c49 -3 122 -21 245 -61 155 -51 185 -58 260
-59 151 -1 305 67 384 170 20 26 35 48 34 50 -2 1 -41 -2 -88 -8 -123 -14
-248 -4 -323 28 -113 46 -160 57 -247 58 -115 0 -211 -26 -338 -90 -58 -30
-114 -54 -124 -54 -10 0 -79 -22 -153 -50 -144 -53 -212 -63 -236 -34 -9 11
-12 39 -11 84 3 57 -1 76 -22 117 -41 77 -114 146 -261 243 -44 29 -97 66
-117 82 l-37 29 -6 -23 c-3 -13 8 -95 26 -183 27 -136 31 -173 25 -247 -6 -97
-6 -97 68 -231 53 -97 56 -132 10 -143 -21 -5 -35 3 -87 53 -63 61 -139 109
-284 182 -81 40 -163 91 -212 129 l-25 20 17 83 c23 117 80 228 163 318 92
100 159 148 320 233 173 92 234 118 275 118 l31 0 -7 -64 c-5 -53 -3 -73 13
-108 69 -156 321 -238 694 -225 168 6 280 24 408 67 227 76 419 219 493 365
89 178 89 353 -1 449 -33 35 -156 96 -194 96 -42 0 -75 -20 -89 -51 -21 -52
28 -99 103 -99 37 0 92 -39 113 -80 51 -98 -37 -228 -166 -246 -31 -4 -74 2
-144 20 -205 52 -285 83 -605 236 -129 62 -257 120 -285 128 -34 11 -86 16
-165 16 -96 0 -125 -4 -174 -24 -94 -36 -166 -124 -166 -203 0 -27 51 -77 141
-138 123 -83 125 -87 28 -101 -131 -18 -337 -101 -481 -194 -145 -93 -289
-259 -338 -390 -16 -44 -39 -155 -40 -196 0 -22 -41 -3 -63 30 -73 105 -102
232 -78 342 41 189 238 387 484 485 37 15 67 31 67 36 0 19 -56 31 -120 25
-88 -7 -201 -38 -344 -94 l-119 -47 -80 -87 c-83 -92 -116 -108 -137 -69 -5
11 -14 72 -20 137 -12 138 -22 179 -53 225 -40 60 -95 90 -181 100 -158 17
-281 64 -475 183 -94 57 -103 61 -114 49z m2337 -350 c-19 -31 -34 -69 -34
-84 0 -15 -7 -29 -15 -33 -12 -4 -15 3 -15 29 0 49 17 86 53 117 18 15 35 27
39 28 3 0 -9 -26 -28 -57z m-1954 -3 c0 -13 -11 -13 -30 0 -12 8 -11 10 8 10
12 0 22 -4 22 -10z m40 -35 c0 -8 -4 -15 -10 -15 -5 0 -10 7 -10 15 0 8 5 15
10 15 6 0 10 -7 10 -15z m110 -43 c0 -30 13 -57 60 -126 73 -107 173 -237 238
-307 45 -49 49 -51 70 -38 13 8 51 54 85 104 34 49 77 107 96 128 37 41 142
117 161 117 6 0 -43 -53 -107 -117 -130 -129 -180 -206 -189 -290 -4 -36 0
-57 14 -86 l20 -37 -47 39 c-61 51 -94 67 -166 80 -32 6 -61 12 -64 13 -3 1
19 4 49 7 76 8 76 26 2 127 -91 124 -162 174 -278 195 -127 24 -134 28 -54 28
41 0 89 0 106 0 l32 1 -34 34 c-29 29 -34 41 -34 81 0 48 13 85 30 85 6 0 10
-17 10 -38z m-75 7 c12 -19 -5 -23 -22 -6 -16 16 -16 17 -1 17 9 0 20 -5 23
-11z m2340 -39 c-11 -12 -33 -28 -51 -36 -76 -36 -39 -70 94 -86 65 -9 112 -9
164 -2 40 6 75 7 78 3 3 -4 28 -13 55 -20 58 -14 160 -57 153 -64 -2 -3 -36 2
-74 10 -38 8 -170 26 -294 40 -124 15 -268 35 -322 46 -134 27 -148 26 -148
-9 0 -15 14 -49 30 -75 52 -82 31 -75 -32 11 -58 78 -76 91 -125 92 -42 0 -63
13 -42 26 25 15 135 16 185 1 65 -19 116 -10 238 42 105 46 116 49 91 21z
m-1455 -45 c-7 -8 -18 -15 -24 -15 -6 0 -2 7 8 15 25 19 32 19 16 0z m2005 -5
c4 -6 -5 -10 -19 -10 -14 0 -26 5 -26 10 0 6 9 10 19 10 11 0 23 -4 26 -10z
m98 -81 c-14 -14 -37 -23 -69 -25 -43 -4 -46 -3 -24 7 14 6 36 17 50 25 14 7
34 14 45 14 19 0 19 -1 -2 -21z m-3 -49 c0 -5 -4 -10 -10 -10 -5 0 -10 5 -10
10 0 6 5 10 10 10 6 0 10 -4 10 -10z m-554 -54 c20 -25 46 -59 57 -77 20 -31
20 -31 1 -21 -30 16 -114 116 -114 136 0 17 23 1 56 -38z m-2237 -240 c-8 -8
-88 -10 -95 -3 -4 4 17 7 46 7 29 0 51 -2 49 -4z m-289 -46 c0 -5 -8 -10 -17
-10 -15 0 -16 2 -3 10 19 12 20 12 20 0z m1570 -126 c0 -8 -5 -12 -10 -9 -6 4
-8 11 -5 16 9 14 15 11 15 -7z m96 -232 c26 -77 34 -185 16 -231 -7 -19 -10
-5 -15 65 -3 52 -19 134 -36 197 -17 59 -31 113 -31 120 1 18 38 -68 66 -151z
m1114 -16 c47 -14 99 -26 115 -29 22 -3 18 -4 -15 -6 -25 0 -79 8 -120 20 -41
11 -99 24 -130 28 l-55 9 60 1 c38 1 93 -8 145 -23z m273 -43 c-7 -2 -21 -2
-30 0 -10 3 -4 5 12 5 17 0 24 -2 18 -5z m-1928 -102 c81 -29 167 -84 236
-154 110 -110 135 -150 174 -287 72 -249 82 -429 34 -580 l-23 -75 -7 40 c-46
257 -52 283 -81 335 -40 73 -81 122 -214 260 -202 210 -281 325 -291 426 l-6
54 62 0 c35 0 85 -8 116 -19z m1101 -197 c-4 -9 -9 -15 -11 -12 -3 3 -3 13 1
22 4 9 9 15 11 12 3 -3 3 -13 -1 -22z m-51 -15 c8 -13 -3 -79 -13 -79 -4 0 -9
20 -10 45 -1 43 9 58 23 34z m30 -68 c-3 -12 -11 -21 -16 -21 -6 0 -8 3 -6 8
2 4 7 16 11 26 9 25 20 13 11 -13z m-35 -56 c0 -8 -7 -15 -16 -15 -14 0 -14 3
-4 15 7 8 14 15 16 15 2 0 4 -7 4 -15z m523 -247 c-13 -12 -25 -19 -29 -15
-10 10 16 37 34 37 13 0 12 -4 -5 -22z m-2043 -8 c-25 -16 -169 -62 -181 -58
-16 5 28 33 82 52 50 17 124 22 99 6z m2070 -10 c0 -5 -5 -10 -11 -10 -5 0 -7
5 -4 10 3 6 8 10 11 10 2 0 4 -4 4 -10z m-2360 -135 c0 -4 -7 -19 -16 -36 -55
-107 127 -151 318 -75 70 28 149 45 133 28 -18 -17 -259 -92 -298 -92 -37 0
-48 -15 -27 -36 7 -7 1 -9 -20 -6 -27 4 -38 -2 -77 -44 -26 -27 -43 -40 -39
-29 30 76 28 124 -6 161 -16 18 -27 21 -59 17 -46 -7 -51 9 -17 52 32 41 108
83 108 60z m-233 -171 c-3 -3 -12 -4 -19 -1 -8 3 -5 6 6 6 11 1 17 -2 13 -5z
m463 -129 c0 -10 -41 10 -57 27 -17 19 -15 19 20 -2 20 -12 37 -23 37 -25z
m364 -7 c14 -23 -3 -52 -33 -56 -18 -3 -21 2 -21 31 0 18 3 37 7 41 11 11 35
3 47 -16z m-174 -20 c-49 -11 -73 -25 -64 -39 9 -15 -13 -10 -26 6 -23 28 5
45 74 44 l61 -1 -45 -10z m-150 -89 c-7 -11 -14 -18 -17 -15 -8 8 5 36 17 36
7 0 7 -6 0 -21z m218 -53 c19 -17 41 -44 49 -61 11 -21 -4 -10 -51 38 -89 91
-87 105 2 23z"/>
<path d="M9185 8276 c-80 -38 -115 -72 -144 -136 -53 -117 -1 -337 111 -472
55 -66 183 -161 281 -207 182 -86 329 -120 555 -128 373 -13 625 69 694 225
16 35 18 55 13 108 l-7 64 31 0 c41 0 102 -26 275 -118 161 -85 228 -133 320
-233 83 -90 140 -201 163 -318 l17 -83 -25 -20 c-49 -38 -131 -89 -212 -129
-145 -73 -221 -121 -284 -182 -52 -50 -66 -58 -87 -53 -46 11 -43 46 10 143
74 134 74 134 68 231 -6 74 -2 111 25 247 18 88 29 170 26 183 l-6 23 -37 -29
c-20 -16 -73 -53 -117 -82 -147 -97 -220 -166 -261 -243 -21 -41 -25 -60 -22
-117 1 -45 -2 -73 -11 -84 -24 -29 -92 -19 -236 34 -74 28 -143 50 -153 50
-10 0 -66 24 -124 54 -219 111 -374 119 -585 32 -75 -32 -200 -42 -323 -28
-47 6 -86 9 -88 8 -1 -2 14 -24 34 -50 79 -103 233 -171 384 -170 75 1 105 8
260 59 123 40 196 58 245 61 l70 5 -106 -43 c-131 -54 -207 -99 -271 -160 -50
-49 -98 -135 -98 -178 0 -14 -7 -59 -16 -100 -29 -137 3 -276 78 -333 109 -83
278 -37 278 76 0 29 -8 54 -26 80 -32 48 -126 117 -198 146 -60 25 -69 39 -68
107 3 150 201 313 419 346 92 13 159 4 174 -24 9 -17 2 -38 -45 -130 -63 -124
-68 -158 -31 -208 14 -19 25 -39 25 -44 0 -6 13 -39 29 -73 47 -99 100 -116
132 -44 8 17 23 35 34 41 33 18 65 73 65 114 0 21 -19 84 -45 147 -51 124 -54
146 -25 177 25 26 29 26 103 7 166 -43 303 -168 348 -315 l20 -68 -25 -139
c-63 -341 -53 -501 38 -640 38 -58 50 -121 42 -226 -20 -295 -20 -303 3 -326
34 -34 43 -18 35 69 -7 82 5 143 32 158 7 4 19 34 25 66 10 48 9 84 -5 202
-29 240 -25 296 34 414 41 80 100 157 250 320 189 207 238 288 275 454 3 16
23 46 43 67 65 65 202 75 373 28 187 -51 305 -142 376 -286 36 -74 38 -83 38
-173 -1 -83 -4 -102 -28 -151 -28 -58 -113 -153 -128 -143 -5 3 -9 14 -9 24 0
44 -54 153 -101 204 -103 113 -217 125 -386 41 -194 -96 -335 -284 -405 -541
-18 -67 -21 -108 -22 -269 -1 -173 1 -197 22 -265 43 -136 110 -230 212 -299
154 -102 335 -122 533 -59 110 36 167 99 167 185 0 48 -21 79 -58 86 -54 11
-94 -9 -140 -68 -52 -69 -145 -130 -218 -145 -96 -20 -155 5 -224 97 -76 102
-85 145 -46 228 59 128 204 195 422 195 228 0 451 87 523 204 26 42 51 121 51
162 0 59 -61 118 -202 198 -18 10 -28 21 -21 23 25 9 86 106 104 164 66 213
-48 448 -271 557 -47 23 -121 51 -164 62 -85 21 -300 45 -316 35 -6 -3 -10 -1
-10 6 0 7 26 39 59 70 95 93 246 157 481 205 92 19 142 24 188 20 127 -11 261
-105 326 -226 33 -63 64 -100 83 -100 18 0 27 43 19 97 -11 83 -47 143 -147
245 -77 77 -108 102 -172 132 -70 34 -89 39 -193 46 -123 8 -158 21 -108 40
25 10 201 52 377 89 65 14 113 49 133 98 19 43 18 146 -2 266 -19 113 -18 117
62 238 44 67 56 115 30 125 -7 3 -55 -21 -107 -52 -194 -119 -316 -166 -475
-183 -86 -10 -141 -40 -181 -100 -31 -46 -41 -87 -53 -225 -6 -65 -15 -126
-20 -137 -21 -39 -54 -23 -137 69 l-80 87 -119 47 c-143 56 -256 87 -344 94
-64 6 -120 -6 -120 -25 0 -5 30 -21 68 -36 184 -73 374 -232 439 -366 78 -160
67 -316 -34 -461 -22 -33 -63 -52 -63 -30 -1 41 -24 152 -40 196 -49 131 -193
297 -338 390 -144 93 -350 176 -481 194 -97 14 -95 18 28 101 90 61 141 111
141 138 0 79 -72 167 -166 203 -49 20 -78 24 -174 24 -79 0 -131 -5 -165 -16
-27 -8 -156 -66 -285 -128 -320 -153 -400 -184 -605 -236 -70 -18 -113 -24
-144 -20 -129 18 -217 148 -166 246 21 41 76 80 113 80 45 0 79 16 98 45 31
48 -14 105 -84 105 -15 0 -59 -15 -97 -34z m1272 -294 c36 -31 53 -68 53 -117
0 -26 -3 -33 -15 -29 -8 4 -15 18 -15 33 0 15 -15 53 -34 84 -19 31 -31 57
-28 57 4 -1 21 -13 39 -28z m1973 -32 c-19 -13 -30 -13 -30 0 0 6 10 10 23 10
18 0 19 -2 7 -10z m-50 -35 c0 -8 -4 -15 -10 -15 -5 0 -10 7 -10 15 0 8 5 15
10 15 6 0 10 -7 10 -15z m-100 -24 c5 -11 10 -41 10 -66 0 -40 -5 -52 -34 -81
l-34 -34 32 -1 c17 0 65 0 106 0 80 0 73 -4 -54 -28 -116 -21 -187 -71 -278
-195 -74 -101 -74 -119 2 -127 30 -3 52 -6 49 -7 -3 -1 -32 -7 -64 -13 -72
-13 -105 -29 -166 -80 l-47 -39 20 37 c14 29 18 50 14 86 -9 84 -59 161 -189
290 -64 64 -113 117 -107 117 19 0 124 -76 161 -117 19 -21 62 -79 96 -128 34
-50 72 -96 85 -104 21 -13 25 -11 70 38 65 70 165 200 238 307 47 69 60 96 60
126 0 41 13 49 30 19z m67 -18 c-9 -9 -19 -14 -23 -11 -10 10 6 28 24 28 15 0
15 -1 -1 -17z m-2273 -53 c125 -53 175 -62 240 -43 50 15 160 14 185 -1 21
-13 0 -26 -42 -26 -49 -1 -67 -14 -125 -92 -63 -86 -84 -93 -32 -11 17 26 30
60 30 75 0 35 -14 36 -148 9 -54 -11 -198 -31 -322 -46 -124 -14 -256 -32
-294 -40 -38 -8 -72 -13 -74 -10 -7 7 95 50 153 64 27 7 52 16 55 20 3 4 38 3
78 -3 52 -7 99 -7 164 2 133 16 170 50 94 86 -30 14 -77 56 -62 56 3 0 48 -18
100 -40z m1392 -38 c-4 -3 -14 2 -24 12 -16 18 -16 18 6 6 13 -6 21 -14 18
-18z m-1986 8 c0 -5 -12 -10 -26 -10 -14 0 -23 4 -19 10 3 6 15 10 26 10 10 0
19 -4 19 -10z m-102 -74 c15 -8 38 -19 52 -25 22 -10 19 -11 -24 -7 -32 2 -55
11 -69 25 -20 19 -20 21 -3 21 10 0 30 -6 44 -14z m-18 -56 c0 -5 -4 -10 -10
-10 -5 0 -10 5 -10 10 0 6 5 10 10 10 6 0 10 -4 10 -10z m590 -16 c0 -20 -84
-120 -114 -136 -19 -10 -19 -10 1 21 46 74 113 141 113 115z m2276 -281 c-7
-7 -87 -5 -95 3 -2 2 20 4 49 4 29 0 50 -3 46 -7z m224 -49 c0 -2 -7 -4 -15
-4 -8 0 -15 4 -15 10 0 5 7 7 15 4 8 -4 15 -8 15 -10z m-1585 -113 c3 -5 1
-12 -5 -16 -5 -3 -10 1 -10 9 0 18 6 21 15 7z m-75 -207 c-18 -64 -34 -146
-37 -198 -5 -70 -8 -84 -15 -65 -14 37 -11 148 6 203 21 69 70 188 74 177 1
-4 -11 -57 -28 -117z m-1000 -35 c-31 -4 -89 -17 -130 -28 -41 -12 -95 -20
-120 -20 l-45 1 45 9 c25 4 74 17 110 28 38 11 92 19 130 19 l65 0 -55 -9z
m-387 -56 c-7 -2 -21 -2 -30 0 -10 3 -4 5 12 5 17 0 24 -2 18 -5z m2064 -137
c-10 -101 -89 -216 -291 -426 -133 -138 -174 -187 -214 -260 -29 -52 -35 -78
-81 -335 l-7 -40 -23 75 c-48 151 -38 331 34 580 39 137 64 177 174 287 109
109 236 172 350 173 l64 0 -6 -54z m-1257 -169 c0 -5 -4 -5 -10 -2 -5 3 -10
14 -10 23 0 15 2 15 10 2 5 -8 10 -19 10 -23z m58 -42 c-1 -25 -6 -45 -10 -45
-10 0 -21 66 -13 79 14 24 24 9 23 -34z m-35 -35 c3 -11 2 -20 -3 -20 -8 0
-20 24 -20 41 0 17 17 1 23 -21z m37 -55 c10 -12 10 -15 -4 -15 -9 0 -16 7
-16 15 0 8 2 15 4 15 2 0 9 -7 16 -15z m-520 -240 c21 -25 1 -31 -22 -7 -18
18 -19 22 -6 22 8 0 21 -7 28 -15z m2117 -21 c54 -17 109 -53 82 -54 -18 0
-150 44 -176 59 -30 17 36 14 94 -5z m-2152 -4 c3 -5 1 -10 -4 -10 -6 0 -11 5
-11 10 0 6 2 10 4 10 3 0 8 -4 11 -10z m2394 -145 c34 -17 81 -71 81 -92 0
-12 -8 -15 -39 -10 -80 10 -108 -67 -65 -178 4 -11 -13 2 -39 29 -39 42 -50
48 -77 44 -21 -3 -27 -1 -20 6 21 21 10 36 -27 36 -39 0 -280 75 -298 92 -16
17 63 0 133 -28 88 -35 167 -46 232 -34 84 16 114 54 86 109 -9 17 -16 32 -16
36 0 9 20 5 49 -10z m208 -161 c-3 -3 -12 -4 -19 -1 -8 3 -5 6 6 6 11 1 17 -2
13 -5z m-431 -103 c-10 -10 -26 -21 -38 -24 -23 -7 -19 -1 19 24 36 23 40 23
19 0z m-368 -54 c3 -31 0 -37 -15 -37 -38 0 -56 43 -31 68 23 23 43 9 46 -31z
m212 -2 c10 -12 10 -18 0 -30 -13 -16 -35 -21 -26 -6 9 14 -15 28 -64 39 l-45
10 61 1 c44 1 65 -3 74 -14z m77 -80 c9 -25 -4 -29 -17 -6 -7 15 -7 21 0 21 6
0 13 -7 17 -15z m-233 -82 c-50 -51 -63 -60 -51 -37 16 31 106 118 114 110 3
-2 -26 -35 -63 -73z"/>
<path d="M11754 4449 c-218 -25 -386 -167 -454 -384 -28 -88 -38 -298 -21
-430 26 -199 115 -388 246 -520 138 -141 314 -210 441 -175 89 25 194 152 219
265 13 58 13 58 41 36 133 -105 170 -295 88 -459 -81 -165 -244 -269 -475
-303 -152 -22 -262 8 -299 82 -11 21 -20 45 -20 53 0 40 -46 154 -89 218 -27
40 -109 138 -182 218 -149 163 -209 240 -249 320 -59 118 -63 174 -34 414 14
118 15 154 5 202 -6 32 -18 62 -25 66 -27 15 -39 76 -32 158 8 87 -1 103 -35
69 -23 -23 -23 -32 -3 -325 8 -106 -5 -176 -43 -231 -90 -132 -100 -296 -38
-633 28 -150 27 -175 -16 -267 -54 -114 -181 -217 -318 -257 -71 -21 -87 -20
-111 4 -29 29 -25 56 25 179 60 145 60 179 2 237 -23 23 -49 54 -57 69 -36 67
-85 49 -131 -48 -16 -34 -29 -67 -29 -73 0 -5 -11 -25 -25 -44 -37 -50 -32
-84 31 -208 65 -126 64 -145 -6 -157 -148 -25 -385 73 -480 199 -48 63 -61 97
-62 157 0 64 9 77 75 103 30 13 79 40 107 61 112 83 142 171 78 234 -45 44
-95 57 -160 42 -142 -32 -200 -168 -164 -378 25 -140 32 -163 68 -217 54 -83
209 -181 366 -231 28 -10 52 -20 52 -22 0 -3 -30 -3 -67 0 -43 3 -133 27 -243
62 -160 53 -183 57 -265 57 -157 0 -307 -68 -384 -177 l-35 -48 32 6 c18 4 74
10 125 13 114 8 216 -8 303 -47 165 -75 352 -56 561 57 46 24 92 44 103 44 11
0 81 23 155 50 214 79 252 72 247 -49 -6 -128 53 -202 295 -371 133 -93 143
-98 148 -77 4 13 -8 94 -26 182 -27 136 -31 173 -25 247 6 97 6 97 -68 231
-53 97 -56 132 -10 143 21 5 35 -3 87 -53 63 -60 140 -110 277 -178 41 -20
113 -62 158 -92 l84 -56 -7 -46 c-19 -136 -77 -258 -173 -362 -89 -96 -156
-145 -312 -229 -166 -88 -240 -120 -281 -120 l-31 0 7 64 c12 114 -41 191
-174 254 -127 59 -234 76 -471 77 -226 0 -321 -14 -499 -77 -212 -73 -392
-211 -464 -353 -89 -178 -89 -353 1 -449 33 -35 156 -96 194 -96 42 0 75 20
89 51 21 52 -28 99 -103 99 -37 0 -92 39 -113 80 -50 97 33 224 161 245 65 10
279 -45 459 -120 44 -18 186 -83 315 -145 266 -126 333 -146 465 -137 106 7
189 38 240 91 37 38 65 98 65 139 0 27 -51 77 -141 138 -85 57 -106 75 -96 85
2 3 33 9 68 15 141 22 338 102 484 197 144 92 286 257 335 388 16 44 39 155
40 197 0 21 41 2 63 -30 104 -151 113 -327 25 -481 -74 -129 -252 -275 -418
-342 -44 -18 -80 -36 -80 -41 0 -35 130 -35 265 1 86 23 301 105 325 123 8 7
46 47 83 90 72 81 106 97 127 58 5 -11 14 -72 20 -137 12 -138 22 -179 53
-225 40 -60 94 -89 183 -100 163 -20 279 -65 473 -183 52 -31 100 -55 107 -52
26 10 14 58 -30 125 -80 121 -81 125 -62 238 32 195 18 283 -53 330 -39 26
-44 28 -276 78 -93 20 -178 41 -188 47 -36 19 -1 30 117 38 104 7 123 12 193
46 64 30 95 55 172 132 100 102 136 162 147 245 18 128 -34 127 -102 -3 -36
-67 -114 -146 -179 -182 -79 -42 -158 -54 -257 -39 -252 39 -447 114 -556 214
-78 73 -79 72 69 86 229 21 392 84 505 196 127 126 175 304 123 458 -21 61
-78 151 -102 160 -7 2 3 13 21 23 191 108 224 157 187 278 -20 66 -49 110 -98
150 -107 87 -232 123 -467 136 -204 11 -266 30 -352 108 -45 40 -88 121 -88
165 0 39 20 83 70 150 69 92 128 117 225 97 70 -15 164 -77 217 -144 49 -63
58 -68 115 -69 36 0 50 5 65 22 38 48 15 149 -48 199 -40 32 -150 70 -224 78
-30 3 -64 7 -75 8 -11 2 -52 -1 -91 -5z m-117 -705 c-8 -8 -98 78 -114 109
-11 23 2 13 51 -37 37 -37 65 -70 63 -72z m173 -4 c-6 -11 -15 -20 -21 -20 -6
0 -6 7 1 20 6 11 15 20 21 20 6 0 6 -7 -1 -20z m-80 -55 c23 -28 -5 -45 -74
-44 l-61 1 44 9 c47 9 74 26 65 40 -9 15 13 10 26 -6z m-210 -30 c0 -39 -21
-55 -45 -35 -29 24 -11 70 27 70 14 0 18 -8 18 -35z m-610 -170 c31 -174 61
-222 266 -435 206 -214 286 -332 288 -425 l1 -50 -53 -3 c-106 -6 -235 55
-346 163 -112 109 -141 157 -180 293 -73 253 -84 429 -35 582 l23 75 7 -40 c4
-22 17 -94 29 -160z m986 104 c8 -13 -21 1 -51 26 -19 15 -18 15 12 1 17 -9
35 -21 39 -27z m179 -7 c-17 -49 -11 -98 17 -128 16 -18 27 -21 59 -17 32 5
39 3 39 -11 0 -24 -60 -84 -102 -101 l-38 -15 22 44 c20 43 21 46 4 71 -24 36
-59 48 -146 47 -70 -1 -173 -26 -204 -51 -6 -5 -33 -11 -61 -15 -39 -5 -46 -4
-32 5 38 23 252 89 289 89 38 0 49 15 28 36 -7 7 -1 9 20 6 27 -4 37 2 73 41
23 25 43 44 44 43 1 -1 -4 -21 -12 -44z m242 -88 c-3 -3 -12 -4 -19 -1 -8 3
-5 6 6 6 11 1 17 -2 13 -5z m-377 -274 c-36 -28 -113 -52 -157 -48 -36 3 -33
5 52 35 50 17 99 32 110 32 18 1 18 -1 -5 -19z m-2220 -24 c0 -3 -4 -8 -10
-11 -5 -3 -10 -1 -10 4 0 6 5 11 10 11 6 0 10 -2 10 -4z m40 -14 c0 -13 -23
-32 -39 -32 -11 0 -10 4 4 20 19 21 35 26 35 12z m520 -246 c0 -2 -7 -9 -15
-16 -12 -10 -15 -10 -15 4 0 9 7 16 15 16 8 0 15 -2 15 -4z m-47 -66 c-6 -22
-23 -38 -23 -21 0 17 12 41 20 41 5 0 6 -9 3 -20z m35 -35 c1 -43 -9 -58 -23
-34 -8 13 3 79 13 79 4 0 9 -20 10 -45z m-67 -62 c-8 -15 -10 -15 -11 -2 0 17
10 32 18 25 2 -3 -1 -13 -7 -23z m588 -373 c36 -129 39 -153 10 -90 -62 135
-85 262 -63 345 7 24 10 13 15 -57 4 -48 21 -137 38 -198z m-1386 83 c-7 -2
-19 -2 -25 0 -7 3 -2 5 12 5 14 0 19 -2 13 -5z m253 -24 c43 -12 104 -25 134
-29 l55 -7 -60 -2 c-38 -1 -93 8 -145 23 -47 14 -98 26 -115 29 -25 3 -23 4
11 6 22 0 76 -9 120 -20z m1209 -258 c3 -5 1 -12 -5 -16 -5 -3 -10 1 -10 9 0
18 6 21 15 7z m1060 -124 c17 -8 57 -20 90 -26 32 -6 61 -12 64 -13 3 -1 -19
-4 -49 -7 -77 -8 -77 -26 2 -131 100 -134 170 -176 348 -208 l55 -11 -80 1
c-44 0 -92 0 -106 -1 l-27 -1 34 -34 c29 -29 34 -41 34 -81 0 -48 -13 -85 -30
-85 -6 0 -10 17 -10 38 0 30 -13 57 -60 126 -102 150 -270 356 -290 356 -14 0
-63 -55 -112 -127 -66 -99 -103 -139 -173 -190 -102 -74 -90 -48 32 75 130
128 180 205 189 289 4 36 0 57 -14 86 l-20 37 47 -39 c25 -21 60 -45 76 -54z
m525 -1 c0 -2 -7 -6 -15 -10 -8 -3 -15 -1 -15 4 0 6 7 10 15 10 8 0 15 -2 15
-4z m-242 -53 c-16 -2 -40 -2 -55 0 -16 2 -3 4 27 4 30 0 43 -2 28 -4z m-2332
-175 c42 -45 77 -98 70 -105 -3 -3 -15 2 -27 13 -23 21 -89 108 -89 118 0 14
18 4 46 -26z m456 -116 c53 -74 76 -91 118 -92 19 0 41 -4 49 -9 41 -26 -110
-40 -188 -17 -66 19 -107 12 -238 -45 -51 -21 -96 -39 -99 -39 -14 0 21 31 57
52 21 11 40 27 43 35 16 40 -165 74 -296 56 -44 -6 -78 -7 -85 -1 -6 5 -40 17
-75 27 -67 19 -133 49 -125 57 2 2 33 -2 68 -10 35 -8 147 -24 249 -36 102
-11 241 -30 310 -42 69 -11 144 -23 168 -25 41 -5 42 -4 42 24 0 16 -13 50
-30 76 -52 83 -31 75 32 -11z m-972 -2 c0 -5 -4 -10 -10 -10 -5 0 -10 5 -10
10 0 6 5 10 10 10 6 0 10 -4 10 -10z m70 -32 c-14 -5 -37 -16 -52 -24 -14 -8
-34 -14 -43 -14 -15 0 -15 2 -4 16 18 22 47 33 89 33 34 0 34 -1 10 -11z m50
-98 c0 -5 -9 -10 -19 -10 -11 0 -23 5 -26 10 -4 6 5 10 19 10 14 0 26 -4 26
-10z m1990 5 c0 -2 -10 -10 -22 -16 -21 -11 -22 -11 -9 4 13 16 31 23 31 12z
m-965 -122 c-4 -22 -20 -48 -43 -69 -39 -35 -66 -47 -40 -16 25 28 58 99 58
126 0 30 24 41 28 13 2 -11 1 -35 -3 -54z m1846 31 c12 -14 11 -16 -5 -13 -11
2 -21 10 -24 17 -5 17 13 15 29 -4z m29 -39 c0 -8 -4 -15 -10 -15 -5 0 -10 7
-10 15 0 8 5 15 10 15 6 0 10 -7 10 -15z m55 -35 c3 -5 -3 -10 -14 -10 -12 0
-21 5 -21 10 0 6 6 10 14 10 8 0 18 -4 21 -10z"/>
<path d="M880 4380 c-197 -34 -290 -104 -290 -220 0 -57 26 -80 91 -80 43 0
54 4 72 27 128 159 269 224 379 175 72 -32 168 -168 168 -239 0 -39 -42 -123
-76 -154 -94 -84 -166 -107 -374 -119 -171 -10 -216 -18 -305 -51 -160 -59
-249 -159 -261 -292 -4 -41 -1 -59 15 -85 19 -30 123 -105 184 -133 l25 -12
-40 -51 c-55 -69 -79 -128 -85 -211 -24 -313 243 -542 655 -562 74 -4 122 -10
122 -16 0 -26 -111 -115 -195 -159 -111 -57 -220 -92 -373 -119 -133 -24 -206
-18 -289 22 -63 31 -164 127 -197 191 -51 95 -90 122 -102 72 -20 -79 26 -189
125 -295 128 -139 224 -187 394 -198 114 -8 151 -22 102 -41 -15 -6 -100 -26
-189 -46 -228 -49 -245 -54 -279 -83 -16 -14 -36 -40 -43 -58 -19 -43 -18
-148 2 -262 9 -51 13 -103 10 -115 -3 -12 -30 -60 -61 -107 -52 -81 -68 -130
-45 -144 6 -4 68 27 138 68 70 41 154 86 187 101 77 33 206 66 262 66 55 0
133 39 167 83 39 52 54 107 66 244 6 70 16 133 22 140 25 30 55 14 136 -75 79
-87 81 -88 188 -129 139 -53 192 -69 282 -88 88 -18 132 -19 167 -3 34 15 32
27 -7 40 -65 22 -215 104 -274 150 -93 71 -159 150 -206 245 -42 85 -43 89
-43 187 0 93 3 106 32 169 66 138 107 166 118 80 16 -125 48 -208 119 -307
118 -165 329 -310 566 -389 65 -21 109 -32 218 -53 36 -7 23 -25 -67 -84 -96
-64 -151 -120 -151 -152 0 -13 11 -46 24 -75 42 -90 133 -138 286 -149 125
-10 194 11 465 140 270 129 284 135 413 182 144 53 289 87 344 81 108 -13 188
-90 188 -182 0 -77 -65 -145 -139 -145 -34 0 -49 -6 -72 -29 -37 -37 -37 -55
1 -93 27 -26 36 -30 70 -25 50 6 136 46 179 82 96 82 108 242 31 425 -92 219
-383 399 -739 456 -242 39 -605 2 -731 -74 -76 -46 -104 -70 -128 -111 -23
-39 -27 -58 -27 -121 l0 -75 -30 -3 c-37 -4 -313 131 -428 209 -93 62 -197
171 -250 260 -39 66 -71 161 -82 239 -5 45 -5 46 42 82 27 20 113 71 193 114
174 92 243 138 293 193 38 42 55 48 88 31 31 -17 23 -49 -38 -155 l-58 -100 3
-106 c2 -79 -2 -131 -18 -205 -34 -157 -43 -225 -33 -235 13 -13 249 149 334
229 84 79 111 136 107 228 -5 115 43 125 237 50 64 -25 135 -49 157 -53 22 -3
66 -21 96 -39 112 -68 240 -105 362 -105 98 -1 139 8 242 54 72 31 76 32 223
32 83 0 163 -4 178 -8 l29 -8 -19 32 c-48 83 -190 168 -315 189 -89 15 -148 9
-274 -31 -230 -72 -300 -90 -344 -87 l-45 3 101 38 c110 42 227 112 288 173
43 43 86 125 86 164 0 14 7 59 16 100 28 134 0 267 -72 330 -80 70 -204 64
-266 -13 -28 -36 -23 -97 13 -146 32 -45 163 -136 211 -146 36 -8 50 -35 50
-95 -1 -128 -154 -278 -338 -333 -120 -36 -243 -30 -259 11 -4 10 15 58 50
127 62 124 68 161 31 209 -13 17 -27 42 -31 56 -13 44 -52 114 -73 133 -27 25
-55 15 -82 -28 -12 -19 -34 -44 -49 -55 -63 -44 -65 -115 -5 -251 49 -111 53
-147 21 -177 -24 -23 -25 -23 -95 -7 -84 19 -168 68 -240 138 -65 63 -97 117
-117 193 -14 55 -13 65 17 233 51 290 41 455 -37 581 -48 79 -59 133 -51 248
20 292 20 295 -1 321 -32 40 -45 19 -37 -59 8 -83 0 -134 -26 -158 -38 -35
-45 -118 -26 -279 26 -214 24 -275 -14 -365 -44 -104 -97 -178 -245 -339 -204
-222 -251 -293 -285 -426 -32 -123 -67 -158 -176 -175 -57 -9 -89 -8 -167 5
-235 40 -389 143 -470 317 -27 57 -31 76 -31 155 -1 102 14 150 70 226 40 55
82 87 88 67 29 -110 61 -174 115 -231 59 -63 104 -82 196 -82 73 1 87 4 165
42 155 76 268 192 349 358 73 150 100 280 101 478 0 205 -46 352 -147 466
-120 136 -316 203 -503 171z m396 -598 c-17 -32 -90 -102 -107 -102 -6 0 14
25 45 55 31 31 56 60 56 65 0 6 5 10 10 10 6 0 4 -12 -4 -28z m-263 -112 c3
-11 1 -20 -4 -20 -4 0 -13 9 -19 20 -8 16 -8 20 3 20 8 0 17 -9 20 -20z m82
-49 c-7 -13 8 -21 64 -36 l46 -13 -61 -1 c-69 -1 -97 16 -74 44 13 16 35 21
25 6z m239 -23 c14 -23 -3 -53 -30 -53 -15 0 -20 9 -22 38 -3 35 -1 38 19 35
12 -2 27 -11 33 -20z m632 -118 c29 -134 12 -301 -53 -524 -37 -129 -52 -155
-157 -265 -117 -122 -266 -197 -376 -189 l-45 3 1 50 c2 94 66 190 274 410
146 154 213 238 242 302 18 41 36 122 60 277 l11 68 14 -33 c8 -19 21 -63 29
-99z m-1168 0 c12 -6 33 -8 45 -4 19 6 20 5 9 -9 -19 -23 -6 -37 33 -37 35 0
272 -75 290 -92 17 -16 -66 2 -125 27 -126 54 -261 56 -313 4 -30 -31 -30 -50
-1 -96 13 -20 13 -23 -1 -23 -41 0 -125 71 -125 107 0 11 10 14 39 12 47 -4
68 11 81 61 7 28 6 49 -5 86 l-14 49 32 -37 c18 -20 42 -41 55 -48z m172 76
c0 -2 -17 -14 -37 -25 l-38 -22 28 26 c25 22 47 32 47 21z m-465 -126 c3 -5
-1 -10 -10 -10 -9 0 -13 5 -10 10 3 6 8 10 10 10 2 0 7 -4 10 -10z m450 -290
c48 -16 90 -32 94 -36 15 -17 -115 9 -160 31 -88 45 -57 48 66 5z m2120 -40
c14 -16 15 -20 4 -20 -16 0 -39 19 -39 32 0 14 16 9 35 -12z m-525 -246 c0
-14 -3 -14 -15 -4 -8 7 -15 14 -15 16 0 2 7 4 15 4 8 0 15 -7 15 -16z m35 -55
c10 -30 0 -33 -13 -4 -6 14 -7 25 -2 25 5 0 12 -9 15 -21z m-29 -23 c6 -35 0
-56 -16 -56 -5 0 -9 20 -8 45 3 53 15 59 24 11z m54 -67 c0 -6 -4 -7 -10 -4
-5 3 -10 11 -10 16 0 6 5 7 10 4 6 -3 10 -11 10 -16z m-539 -211 c0 -70 -32
-186 -72 -256 -23 -43 -22 -35 17 108 14 52 28 133 31 180 5 66 8 79 15 60 5
-14 9 -55 9 -92z m1216 -85 c-16 -16 -226 -62 -277 -61 -30 0 -41 3 -25 5 17
2 77 14 135 28 91 21 119 27 164 34 5 0 6 -2 3 -6z m136 0 c-7 -2 -19 -2 -25
0 -7 3 -2 5 12 5 14 0 19 -2 13 -5z m-1473 -283 c0 -5 -4 -10 -10 -10 -5 0
-10 5 -10 10 0 6 5 10 10 10 6 0 10 -4 10 -10z m-972 -67 c-48 -93 8 -211 179
-380 63 -62 110 -113 106 -113 -14 0 -95 53 -136 89 -20 18 -70 81 -111 140
-41 59 -85 114 -98 123 -22 15 -24 14 -50 -16 -172 -195 -318 -404 -318 -452
0 -42 -17 -53 -30 -19 -24 62 -2 147 41 160 47 15 -8 25 -101 19 -111 -8 -116
1 -9 16 142 20 243 88 338 228 55 81 52 96 -19 102 l-55 5 78 18 c63 15 89 28
140 67 34 27 63 49 63 49 1 1 -7 -16 -18 -36z m-598 -63 c0 -5 -7 -7 -15 -4
-8 4 -12 10 -9 15 6 11 24 2 24 -11z m275 -40 c15 -6 6 -9 -33 -9 -33 -1 -51
3 -47 9 7 12 52 12 80 0z m2308 -170 c-24 -42 -102 -125 -109 -117 -13 13 98
147 122 147 3 0 -3 -14 -13 -30z m-439 -77 c-36 -54 -63 -114 -57 -129 7 -19
26 -18 147 6 55 11 200 31 320 45 121 14 251 32 290 40 88 19 95 19 70 0 -10
-8 -57 -27 -104 -41 -47 -14 -89 -30 -93 -34 -5 -4 -25 -4 -45 1 -88 20 -273
2 -314 -30 l-21 -18 27 -19 c49 -34 87 -66 83 -70 -2 -2 -39 11 -83 30 -43 19
-107 42 -141 52 -57 16 -65 16 -112 0 -58 -19 -124 -21 -169 -5 -42 14 -31 29
20 29 44 0 69 20 151 123 42 51 60 63 31 20z m936 -53 c0 -5 -2 -10 -4 -10 -3
0 -8 5 -11 10 -3 6 -1 10 4 10 6 0 11 -4 11 -10z m3 -49 c18 -18 19 -21 5 -21
-9 0 -29 6 -45 14 -15 8 -39 19 -53 25 -22 10 -18 11 24 7 32 -2 55 -11 69
-25z m-2108 -81 c3 -5 2 -10 -4 -10 -5 0 -13 5 -16 10 -3 6 -2 10 4 10 5 0 13
-4 16 -10z m2005 0 c-20 -13 -40 -13 -40 0 0 6 12 10 28 10 21 0 24 -2 12 -10z
m-1040 -79 c0 -15 15 -53 34 -84 19 -31 31 -57 28 -57 -20 2 -74 61 -82 91
-15 52 -13 90 5 83 8 -4 15 -18 15 -33z m-1842 -3 c-3 -7 -13 -15 -24 -17 -16
-3 -17 -1 -5 13 16 19 34 21 29 4z m-38 -43 c0 -8 -4 -15 -10 -15 -5 0 -10 7
-10 15 0 8 5 15 10 15 6 0 10 -7 10 -15z m-35 -35 c-3 -5 -15 -10 -26 -10 -11
0 -17 5 -14 10 3 6 15 10 26 10 11 0 17 -4 14 -10z"/>
<path d="M5993 3225 c8 -103 -8 -250 -33 -319 -12 -31 -38 -78 -58 -104 -30
-39 -36 -55 -36 -97 0 -88 34 -125 264 -283 67 -46 85 -64 85 -83 l0 -24 -160
-5 c-151 -6 -164 -8 -239 -38 -171 -70 -305 -147 -345 -198 -23 -30 -24 -33
-13 -52 7 -10 26 -6 90 17 242 89 527 97 747 21 132 -45 274 -159 325 -260 37
-73 27 -75 -106 -16 -257 115 -603 122 -912 19 -104 -34 -234 -95 -293 -138
-27 -19 -54 -35 -59 -35 -17 0 -30 47 -30 106 0 78 -18 138 -48 167 -38 35
-147 62 -218 53 -112 -13 -233 -95 -288 -196 -25 -45 -31 -79 -57 -283 -38
-301 -66 -417 -134 -559 -18 -38 -40 -66 -67 -85 -38 -26 -48 -28 -137 -28
-106 0 -134 10 -189 66 -35 36 -51 93 -33 118 41 57 38 102 -9 126 -76 39
-142 0 -154 -93 -16 -119 47 -204 208 -282 151 -73 272 -103 426 -103 319 -1
606 117 830 342 154 155 226 296 218 427 -5 88 -39 134 -137 188 -41 23 -76
46 -78 53 -7 19 64 49 214 93 271 80 407 98 587 80 172 -17 380 -80 430 -130
21 -21 23 -72 16 -340 -3 -121 -1 -141 20 -194 25 -64 20 -76 -32 -76 -29 0
-68 40 -155 160 -42 57 -58 70 -137 110 -56 28 -139 85 -224 153 -136 110
-188 147 -208 147 -10 0 -9 -20 16 -233 6 -48 20 -113 32 -144 26 -72 94 -145
163 -177 63 -30 79 -48 71 -79 -6 -27 -59 -58 -184 -107 -46 -18 -99 -43 -118
-56 -19 -13 -63 -30 -97 -38 -251 -58 -399 -178 -422 -341 -4 -28 -17 -68 -30
-90 -24 -42 -129 -148 -179 -181 l-29 -18 24 -7 c79 -22 256 4 349 51 55 28
127 95 149 140 10 19 37 91 60 160 45 137 78 203 103 208 14 3 14 -4 -3 -65
-27 -95 -26 -225 2 -299 44 -117 268 -294 442 -349 128 -41 214 -28 281 43 25
27 27 35 21 71 -7 45 -55 95 -103 108 -75 21 -248 2 -348 -38 -67 -27 -176 44
-234 153 -28 53 -35 76 -38 144 -5 100 13 164 68 233 46 58 90 80 125 61 13
-7 48 -47 79 -89 30 -42 67 -88 83 -103 35 -33 92 -58 135 -58 18 0 62 -9 97
-20 65 -21 149 -28 170 -16 17 11 13 38 -9 66 -11 14 -20 34 -20 45 0 31 -34
80 -72 103 -19 12 -76 33 -128 47 -176 49 -219 66 -240 92 -11 14 -20 30 -20
35 0 16 95 69 165 91 92 28 287 30 384 3 95 -26 131 -47 291 -171 293 -226
421 -292 635 -329 111 -19 191 -58 345 -166 131 -93 222 -143 253 -138 37 5
23 21 -60 68 -103 58 -117 69 -134 105 -22 46 -102 100 -259 176 -276 133
-314 158 -394 258 -73 90 -104 148 -184 348 -99 245 -126 290 -248 409 -99 97
-104 104 -104 143 0 54 18 87 73 138 58 54 115 89 198 124 94 38 166 51 281
50 276 -2 531 -157 573 -348 l7 -33 -44 19 c-85 36 -181 55 -278 56 -83 0
-102 -3 -145 -26 -69 -35 -104 -87 -113 -169 -15 -128 15 -237 100 -367 158
-242 549 -510 853 -583 240 -58 463 -18 598 109 86 80 140 208 119 279 -21 67
-114 142 -177 142 -29 0 -85 -49 -85 -73 0 -8 11 -35 25 -59 69 -124 48 -253
-50 -306 -35 -19 -173 -20 -259 -2 -150 31 -249 172 -217 307 12 48 26 69 134
200 26 32 62 87 80 123 28 58 32 75 32 150 0 64 -5 95 -20 125 -23 48 -108
136 -156 161 -47 25 -161 23 -264 -4 -43 -12 -80 -20 -80 -19 -22 59 -61 121
-102 162 -164 168 -472 245 -718 180 -125 -33 -282 -124 -370 -214 -21 -23
-43 -41 -48 -41 -4 0 -18 21 -30 48 -16 35 -21 66 -21 127 0 107 16 170 75
292 70 147 118 195 225 228 71 22 198 29 274 15 112 -21 190 -24 190 -9 0 19
-53 54 -131 86 -59 24 -78 27 -234 31 -259 6 -347 -17 -466 -124 -71 -64 -107
-77 -101 -39 1 11 36 89 77 173 41 84 75 165 75 179 0 38 -36 89 -87 124 -47
32 -265 139 -284 139 -28 0 -76 51 -134 140 -62 96 -77 110 -117 110 -20 0
-21 -4 -15 -75z m163 -370 c-3 -9 -11 -13 -16 -10 -8 5 -7 11 1 21 14 18 24
11 15 -11z m19 -45 c8 -13 -5 -13 -25 0 -13 8 -13 10 2 10 9 0 20 -4 23 -10z
m15 -40 c0 -11 -4 -20 -10 -20 -5 0 -10 9 -10 20 0 11 5 20 10 20 6 0 10 -9
10 -20z m-1 -56 c57 -29 95 -76 85 -107 -11 -34 31 -2 82 63 49 63 71 74 35
18 -63 -99 -73 -153 -46 -244 18 -61 98 -199 121 -208 11 -4 29 6 55 33 21 21
39 36 39 33 0 -3 -12 -30 -26 -60 -22 -47 -26 -65 -21 -111 3 -31 9 -65 13
-76 4 -11 -7 -3 -26 18 -39 45 -83 69 -171 94 -53 15 -100 18 -281 18 -120 0
-214 2 -210 6 13 12 137 29 208 29 38 0 116 -7 174 -15 58 -8 121 -14 140 -15
65 0 66 7 15 121 -90 200 -192 369 -241 400 -19 11 -34 23 -34 25 0 12 42 1
89 -22z m641 -218 c0 -2 -7 -6 -15 -10 -8 -3 -15 -1 -15 4 0 6 7 10 15 10 8 0
15 -2 15 -4z m-191 -113 c0 -5 -14 -19 -32 -33 -30 -24 -30 -14 1 23 15 17 32
23 31 10z m-884 -223 c-3 -5 -16 -10 -28 -10 -18 0 -19 2 -7 10 20 13 43 13
35 0z m-676 -540 c50 -22 66 -40 36 -40 -9 0 -29 7 -44 15 -16 8 -62 20 -103
27 -67 12 -70 13 -38 19 49 10 89 4 149 -21z m1718 -69 c94 -68 168 -196 264
-459 64 -176 102 -245 169 -312 59 -59 202 -174 260 -209 46 -28 30 -27 -61 4
-183 62 -350 169 -556 355 -113 102 -126 118 -162 193 -88 183 -94 321 -17
422 33 42 51 44 103 6z m1393 9 c0 -5 -4 -10 -10 -10 -5 0 -10 5 -10 10 0 6 5
10 10 10 6 0 10 -4 10 -10z m-2989 -28 c-5 -10 -17 -25 -26 -32 -21 -17 -12
-60 25 -121 27 -45 46 -89 37 -89 -3 0 -19 23 -37 50 -35 54 -64 80 -91 80
-12 0 -34 -31 -66 -92 -27 -51 -89 -149 -137 -218 -92 -131 -149 -223 -161
-259 -3 -11 -11 -21 -16 -21 -16 0 -10 47 15 112 13 35 23 67 23 72 1 5 19 23
41 40 76 58 146 158 140 199 -3 24 -28 27 -118 12 -64 -11 -41 8 49 39 120 42
173 76 191 124 17 46 43 77 85 103 40 25 59 25 46 1z m2839 -2 c13 -9 11 -14
-13 -34 -26 -21 -27 -25 -16 -50 15 -32 64 -64 134 -87 l50 -17 -74 1 c-64 0
-77 -3 -92 -21 -14 -18 -18 -19 -23 -7 -8 22 -36 18 -65 -8 -27 -25 -259 -133
-267 -125 -6 7 72 58 88 58 27 0 118 50 158 87 97 87 82 151 -40 178 l-35 8
30 13 c36 16 144 18 165 4z m-253 -26 c-3 -3 -12 -4 -19 -1 -8 3 -5 6 6 6 11
1 17 -2 13 -5z m-77 -12 c0 -11 -168 -84 -183 -79 -15 5 46 46 101 68 51 20
82 24 82 11z m-1715 -62 c3 -5 1 -10 -4 -10 -6 0 -11 5 -11 10 0 6 2 10 4 10
3 0 8 -4 11 -10z m120 -130 c36 -40 169 -147 235 -189 79 -50 62 -54 -29 -6
-74 39 -162 114 -236 201 -40 46 -44 54 -20 37 17 -11 39 -31 50 -43z m1925
-92 c0 -38 -5 -34 -13 10 -4 21 -3 31 3 27 6 -3 10 -20 10 -37z m-3004 -163
c13 -27 24 -59 24 -70 l-1 -20 -15 20 c-25 31 -64 118 -64 140 l1 20 15 -20
c9 -11 27 -42 40 -70z m2614 65 c0 -5 -4 -10 -10 -10 -5 0 -10 5 -10 10 0 6 5
10 10 10 6 0 10 -4 10 -10z m364 -6 c9 -3 16 -14 16 -24 0 -13 -6 -16 -26 -12
-16 3 -36 -3 -54 -17 -40 -29 -45 -26 -18 10 19 26 34 37 65 48 1 1 8 -2 17
-5z m127 -4 c6 0 8 -4 5 -9 -8 -12 -46 -2 -46 11 0 6 7 7 16 4 9 -3 20 -6 25
-6z m-268 -126 c43 -22 44 -24 27 -34 -37 -24 -90 -5 -90 32 0 22 21 23 63 2z
m182 -21 c4 -20 15 -54 26 -75 11 -21 15 -38 10 -38 -12 0 -47 74 -56 118 -4
18 -3 32 3 32 5 0 13 -17 17 -37z m-3504 -66 c-16 -16 -26 0 -10 19 9 11 15
12 17 4 2 -6 -1 -17 -7 -23z m74 -82 c-29 -24 -81 -42 -92 -32 -9 9 7 27 25
27 9 0 28 7 42 14 42 23 58 17 25 -9z m2 -51 c-3 -3 -12 -4 -19 -1 -8 3 -5 6
6 6 11 1 17 -2 13 -5z m1698 -107 c15 -14 -45 1 -73 19 -38 25 -14 37 26 13
20 -12 42 -27 47 -32z m-115 13 c13 -9 13 -10 0 -10 -8 0 -22 5 -30 10 -13 9
-13 10 0 10 8 0 22 -5 30 -10z m-615 -44 c-14 -18 -37 -62 -51 -97 -25 -61
-71 -135 -80 -126 -2 2 6 24 20 48 13 24 31 65 41 90 17 48 69 119 86 119 6 0
-2 -15 -16 -34z m720 2 c7 -7 2 -8 -15 -3 -14 4 -29 12 -35 17 -7 7 -2 8 15 3
14 -4 30 -12 35 -17z m85 -8 c0 -13 -11 -13 -30 0 -12 8 -11 10 8 10 12 0 22
-4 22 -10z m-985 -289 c-3 -6 -11 -11 -17 -11 -6 0 -6 6 2 15 14 17 26 13 15
-4z m930 -181 c4 -6 -8 -10 -29 -10 -20 0 -36 5 -36 10 0 6 13 10 29 10 17 0
33 -4 36 -10z m-8 -36 c-3 -3 -12 -4 -19 -1 -8 3 -5 6 6 6 11 1 17 -2 13 -5z"/>
</g>
</svg>
